ffmpeg version 4.2.7-0ubuntu0.1 Copyright (c) 2000-2022 the FFmpeg developers
  built with gcc 9 (Ubuntu 9.4.0-1ubuntu1~20.04.1)
  configuration: --prefix=/usr --extra-version=0ubuntu0.1 --toolchain=hardened --libdir=/usr/lib/x86_64-linux-gnu --incdir=/usr/include/x86_64-linux-gnu --arch=amd64 --enable-gpl --disable-stripping --enable-avresample --disable-filter=resample --enable-avisynth --enable-gnutls --enable-ladspa --enable-libaom --enable-libass --enable-libbluray --enable-libbs2b --enable-libcaca --enable-libcdio --enable-libcodec2 --enable-libflite --enable-libfontconfig --enable-libfreetype --enable-libfribidi --enable-libgme --enable-libgsm --enable-libjack --enable-libmp3lame --enable-libmysofa --enable-libopenjpeg --enable-libopenmpt --enable-libopus --enable-libpulse --enable-librsvg --enable-librubberband --enable-libshine --enable-libsnappy --enable-libsoxr --enable-libspeex --enable-libssh --enable-libtheora --enable-libtwolame --enable-libvidstab --enable-libvorbis --enable-libvpx --enable-libwavpack --enable-libwebp --enable-libx265 --enable-libxml2 --enable-libxvid --enable-libzmq --enable-libzvbi --enable-lv2 --enable-omx --enable-openal --enable-opencl --enable-opengl --enable-sdl2 --enable-libdc1394 --enable-libdrm --enable-libiec61883 --enable-nvenc --enable-chromaprint --enable-frei0r --enable-libx264 --enable-shared
  libavutil      56. 31.100 / 56. 31.100
  libavcodec     58. 54.100 / 58. 54.100
  libavformat    58. 29.100 / 58. 29.100
  libavdevice    58.  8.100 / 58.  8.100
  libavfilter     7. 57.100 /  7. 57.100
  libavresample   4.  0.  0 /  4.  0.  0
  libswscale      5.  5.100 /  5.  5.100
  libswresample   3.  5.100 /  3.  5.100
  libpostproc    55.  5.100 / 55.  5.100
Routing option strict to both codec and muxer layer
[h264 @ 0x55a361d25ec0] Reinit context to 1280x720, pix_fmt: yuv420p
Input #0, mov,mp4,m4a,3gp,3g2,mj2, from '/var/www/html/project/media/video/original/VID_20230824_151450_763.mp4':
  Metadata:
    major_brand     : isom
    minor_version   : 512
    compatible_brands: isomiso2avc1mp41
    creation_time   : 2023-08-24T13:07:41.000000Z
  Duration: 00:00:10.34, start: 0.000000, bitrate: 3311 kb/s
    Stream #0:0(eng): Audio: aac (LC) (mp4a / 0x6134706D), 48000 Hz, stereo, fltp, 96 kb/s (default)
    Metadata:
      creation_time   : 2023-08-24T13:07:29.000000Z
      handler_name    : SoundHandle
    Stream #0:1(eng): Video: h264 (High), 1 reference frame (avc1 / 0x31637661), yuv420p(tv, smpte170m/bt470bg/smpte170m, left), 1280x720, 3208 kb/s, 27.57 fps, 30 tbr, 90k tbn, 180k tbc (default)
    Metadata:
      creation_time   : 2023-08-24T13:07:29.000000Z
      handler_name    : VideoHandle
Input #1, png_pipe, from '/var/www/html/project/static/images/templates/logo.png':
  Duration: N/A, bitrate: N/A
    Stream #1:0: Video: png, 1 reference frame, rgba(pc), 1920x1080 [SAR 2835:2835 DAR 16:9], 25 tbr, 25 tbn, 25 tbc
[Parsed_scale_0 @ 0x55a361db41c0] w:1280 h:720 flags:'bilinear' interl:0
[Parsed_scale_2 @ 0x55a361d69480] w:1280 h:720 flags:'bilinear' interl:0
Stream mapping:
  Stream #0:1 (h264) -> scale (graph 0)
  Stream #1:0 (png) -> scale (graph 0)
  overlay (graph 0) -> Stream #0:0 (libx264)
  Stream #0:0 -> #0:1 (aac (native) -> aac (native))
Press [q] to stop, [?] for help
[graph_1_in_0_0 @ 0x55a3620fd180] tb:1/48000 samplefmt:fltp samplerate:48000 chlayout:0x3
[h264 @ 0x55a361dbdc40] Reinit context to 1280x720, pix_fmt: yuv420p
[Parsed_scale_0 @ 0x55a362650400] w:1280 h:720 flags:'bilinear' interl:0
[Parsed_scale_2 @ 0x55a36270dd00] w:1280 h:720 flags:'bilinear' interl:0
[graph 0 input from stream 0:1 @ 0x55a362710180] w:1280 h:720 pixfmt:yuv420p tb:1/90000 fr:30/1 sar:0/1 sws_param:flags=2
[graph 0 input from stream 1:0 @ 0x55a362711200] w:1920 h:1080 pixfmt:rgba tb:1/25 fr:25/1 sar:2835/2835 sws_param:flags=2
[Parsed_scale_0 @ 0x55a362650400] w:1280 h:720 fmt:yuv420p sar:0/1 -> w:1280 h:720 fmt:yuv420p sar:0/1 flags:0x2
[Parsed_setsar_1 @ 0x55a36270d6c0] w:1280 h:720 sar:0/1 dar:16/9 -> sar:1/1 dar:16/9
[Parsed_scale_2 @ 0x55a36270dd00] w:1920 h:1080 fmt:rgba sar:2835/2835 -> w:1280 h:720 fmt:yuva420p sar:1/1 flags:0x2
[Parsed_setsar_3 @ 0x55a36270e740] w:1280 h:720 sar:1/1 dar:16/9 -> sar:1/1 dar:16/9
[Parsed_overlay_4 @ 0x55a36270f3c0] main w:1280 h:720 fmt:yuv420p overlay w:1280 h:720 fmt:yuva420p
[Parsed_overlay_4 @ 0x55a36270f3c0] [framesync @ 0x55a36270f4e8] Selected 1/90000 time base
[Parsed_overlay_4 @ 0x55a36270f3c0] [framesync @ 0x55a36270f4e8] Sync level 2
[libx264 @ 0x55a361d3ad80] using SAR=1/1
[libx264 @ 0x55a361d3ad80] using cpu capabilities: MMX2 SSE2Fast SSSE3 SSE4.2 AVX FMA3 BMI2 AVX2
[libx264 @ 0x55a361d3ad80] profile High, level 3.1
[libx264 @ 0x55a361d3ad80] 264 - core 155 r2917 0a84d98 - H.264/MPEG-4 AVC codec - Copyleft 2003-2018 - http://www.videolan.org/x264.html - options: cabac=1 ref=1 deblock=1:0:0 analyse=0x3:0x113 me=hex subme=2 psy=1 psy_rd=1.00:0.00 mixed_ref=0 me_range=16 chroma_me=1 trellis=0 8x8dct=1 cqm=0 deadzone=21,11 fast_pskip=1 chroma_qp_offset=0 threads=22 lookahead_threads=5 sliced_threads=0 nr=0 decimate=1 interlaced=0 bluray_compat=0 constrained_intra=0 bframes=3 b_pyramid=2 b_adapt=1 b_bias=0 direct=1 weightb=1 open_gop=0 weightp=1 keyint=250 keyint_min=25 scenecut=40 intra_refresh=0 rc_lookahead=10 rc=crf mbtree=1 crf=18.0 qcomp=0.60 qpmin=0 qpmax=69 qpstep=4 ip_ratio=1.40 aq=1:1.00
Output #0, mp4, to '/var/www/html/project/media/video/watermarks/VID_20230824_151450_763.mp4':
  Metadata:
    major_brand     : isom
    minor_version   : 512
    compatible_brands: isomiso2avc1mp41
    encoder         : Lavf58.29.100
    Stream #0:0: Video: h264 (libx264), 1 reference frame (avc1 / 0x31637661), yuv420p, 1280x720 [SAR 1:1 DAR 16:9], q=-1--1, 30 fps, 15360 tbn, 30 tbc (default)
    Metadata:
      encoder         : Lavc58.54.100 libx264
    Side data:
      cpb: bitrate max/min/avg: 0/0/0 buffer size: 0 vbv_delay: -1
    Stream #0:1(eng): Audio: aac (LC) (mp4a / 0x6134706D), 48000 Hz, stereo, fltp, delay 1024, 128 kb/s (default)
    Metadata:
      creation_time   : 2023-08-24T13:07:29.000000Z
      handler_name    : SoundHandle
      encoder         : Lavc58.54.100 aac
[Parsed_overlay_4 @ 0x55a36270f3c0] [framesync @ 0x55a36270f4e8] Sync level 0
No more output streams to write to, finishing.
frame=  285 fps= 61 q=-1.0 Lsize=   12532kB time=00:00:10.30 bitrate=9963.6kbits/s speed=2.21x    
[AVIOContext @ 0x55a361d220c0] Statistics: 0 seeks, 9 writeouts
video:12358kB audio:164kB subtitle:0kB other streams:0kB global headers:0kB muxing overhead: 0.088662%
Input file #0 (/var/www/html/project/media/video/original/VID_20230824_151450_763.mp4):
  Input stream #0:0 (audio): 483 packets read (123747 bytes); 483 frames decoded (494592 samples); 
  Input stream #0:1 (video): 285 packets read (4146560 bytes); 285 frames decoded; 
  Total: 768 packets (4270307 bytes) demuxed
Input file #1 (/var/www/html/project/static/images/templates/logo.png):
  Input stream #1:0 (video): 1 packets read (111578 bytes); 1 frames decoded; 
  Total: 1 packets (111578 bytes) demuxed
Output file #0 (/var/www/html/project/media/video/watermarks/VID_20230824_151450_763.mp4):
  Output stream #0:0 (video): 285 frames encoded; 285 packets muxed (12654120 bytes); 
  Output stream #0:1 (audio): 483 frames encoded (494592 samples); 484 packets muxed (167632 bytes); 
  Total: 769 packets (12821752 bytes) muxed
[AVIOContext @ 0x55a361d3b200] Statistics: 2 seeks, 52 writeouts
[libx264 @ 0x55a361d3ad80] frame I:7     Avg QP:18.28  size: 85366
[libx264 @ 0x55a361d3ad80] frame P:198   Avg QP:21.54  size: 49434
[libx264 @ 0x55a361d3ad80] frame B:80    Avg QP:22.96  size: 28350
[libx264 @ 0x55a361d3ad80] consecutive B-frames: 56.1% 16.8%  7.4% 19.6%
[libx264 @ 0x55a361d3ad80] mb I  I16..4:  9.2% 44.9% 45.9%
[libx264 @ 0x55a361d3ad80] mb P  I16..4:  6.3% 33.5% 17.5%  P16..4: 22.1%  7.8%  7.4%  0.0%  0.0%    skip: 5.3%
[libx264 @ 0x55a361d3ad80] mb B  I16..4:  2.6% 17.6%  6.7%  B16..8: 24.8% 13.2%  4.6%  direct:13.5%  skip:16.9%  L0:48.7% L1:29.5% BI:21.7%
[libx264 @ 0x55a361d3ad80] 8x8 transform intra:58.9% inter:15.3%
[libx264 @ 0x55a361d3ad80] coded y,uvDC,uvAC intra: 77.3% 37.5% 6.4% inter: 39.8% 19.1% 2.8%
[libx264 @ 0x55a361d3ad80] i16 v,h,dc,p: 29% 36% 31%  5%
[libx264 @ 0x55a361d3ad80] i8 v,h,dc,ddl,ddr,vr,hd,vl,hu: 17% 26% 21%  5%  6%  5%  7%  6%  7%
[libx264 @ 0x55a361d3ad80] i4 v,h,dc,ddl,ddr,vr,hd,vl,hu: 19% 22% 11%  7%  9%  8%  9%  7%  9%
[libx264 @ 0x55a361d3ad80] i8c dc,h,v,p: 59% 23% 15%  3%
[libx264 @ 0x55a361d3ad80] Weighted P-Frames: Y:1.5% UV:1.0%
[libx264 @ 0x55a361d3ad80] kb/s:9827.91
[aac @ 0x55a361d37f40] Qavg: 439.453
[AVIOContext @ 0x55a361d2b040] Statistics: 4322281 bytes read, 2 seeks
[AVIOContext @ 0x55a361d2a380] Statistics: 111578 bytes read, 0 seeks
